<svg width="18" height="18" viewBox="0 0 18 18" fill="none" xmlns="http://www.w3.org/2000/svg">
<path d="M14.9458 7.48178H8.70053V10.07H12.2945C11.96 11.7148 10.5598 12.6598 8.70053 12.6598C8.18028 12.6607 7.66498 12.5588 7.18417 12.3601C6.70336 12.1614 6.26651 11.8698 5.89867 11.5019C5.53083 11.134 5.23925 10.697 5.04063 10.2162C4.84202 9.73535 4.74029 9.22003 4.74128 8.69978C4.74039 8.17959 4.84219 7.66435 5.04085 7.18359C5.23951 6.70283 5.53111 6.26601 5.89894 5.89818C6.26676 5.53036 6.70358 5.23875 7.18434 5.0401C7.6651 4.84144 8.18035 4.73964 8.70053 4.74053C9.64478 4.74053 10.4983 5.07578 11.168 5.62403L13.118 3.67478C11.93 2.63903 10.4068 2.00003 8.70053 2.00003C7.81989 1.99745 6.94742 2.16901 6.13332 2.50483C5.31921 2.84065 4.57953 3.33411 3.95682 3.95682C3.33411 4.57953 2.84065 5.31921 2.50483 6.13332C2.16901 6.94742 1.99746 7.81988 2.00003 8.70053C1.99736 9.5812 2.16885 10.4537 2.50463 11.2679C2.84041 12.082 3.33387 12.8217 3.9566 13.4445C4.57933 14.0672 5.31905 14.5606 6.1332 14.8964C6.94735 15.2322 7.81986 15.4037 8.70053 15.401C12.0508 15.401 15.0973 12.9643 15.0973 8.70053C15.0973 8.30453 15.0365 7.87778 14.9458 7.48178Z" fill="#242430"/>
</svg>
