<svg width="39" height="39" viewBox="0 0 39 39" fill="none" xmlns="http://www.w3.org/2000/svg">
<path d="M14.625 35.75H16.25V32.5H14.6429C14.1424 32.4902 9.75004 32.2189 9.75004 26C9.75004 22.7614 8.66942 20.7253 7.30929 19.5C8.66942 18.2747 9.75004 16.2386 9.75004 13C9.75004 6.78113 14.1424 6.50975 14.625 6.5H16.25V3.25H14.6218C11.8122 3.2565 6.50004 5.304 6.50004 13C6.50004 17.55 3.77329 17.8588 3.22729 17.875L3.25005 21.125C3.3833 21.125 6.50004 21.1803 6.50004 26C6.50004 33.696 11.8122 35.7435 14.625 35.75ZM35.75 17.875C35.6168 17.875 32.5 17.8197 32.5 13C32.5 5.304 27.1879 3.2565 24.375 3.25H22.75V6.5H24.3572C24.8577 6.50975 29.25 6.78113 29.25 13C29.25 16.2386 30.3307 18.2747 31.6908 19.5C30.3307 20.7253 29.25 22.7614 29.25 26C29.25 32.2189 24.8577 32.4902 24.375 32.5H22.75V35.75H24.3783C27.1879 35.7435 32.5 33.696 32.5 26C32.5 21.45 35.2268 21.1413 35.7728 21.125L35.75 17.875Z" fill="#242430"/>
</svg>
