<svg width="40" height="40" viewBox="0 0 40 40" fill="none" xmlns="http://www.w3.org/2000/svg">
<path d="M30.6734 4.9966C29.4117 3.73993 27.2117 3.74493 25.9601 5.00493L22.9867 7.98993L19.3101 11.6666H11.6667C11.3248 11.6664 10.991 11.7715 10.711 11.9678C10.431 12.164 10.2182 12.4418 10.1017 12.7633L3.43505 31.0966C3.21338 31.7049 3.36505 32.3866 3.82172 32.8449L7.15505 36.1783C7.37914 36.4029 7.66286 36.5587 7.97268 36.6272C8.2825 36.6958 8.60546 36.6741 8.90338 36.5649L27.2367 29.8983C27.5582 29.7818 27.836 29.569 28.0322 29.289C28.2285 29.0089 28.3336 28.6752 28.3334 28.3333V20.6899L32.0117 17.0116V17.0099H32.0134L35 14.0149C35.6301 13.3849 35.9767 12.5466 35.975 11.6566C35.975 10.7649 35.6267 9.9266 34.9951 9.29826L30.6734 4.9966ZM25.4884 18.8216C25.3333 18.9761 25.2103 19.1598 25.1265 19.362C25.0427 19.5642 24.9997 19.781 25 19.9999V27.1666L9.58505 32.7716L17.37 24.9866C17.4134 24.9883 17.4567 24.9999 17.5 24.9999C17.9945 24.9999 18.4779 24.8533 18.889 24.5786C19.3001 24.3039 19.6205 23.9135 19.8097 23.4566C19.999 22.9998 20.0485 22.4972 19.952 22.0122C19.8556 21.5273 19.6174 21.0818 19.2678 20.7322C18.9182 20.3825 18.4727 20.1444 17.9878 20.048C17.5028 19.9515 17.0002 20.001 16.5433 20.1902C16.0865 20.3795 15.6961 20.6999 15.4214 21.111C15.1467 21.5221 15 22.0055 15 22.4999C15 22.5433 15.0117 22.5866 15.0134 22.6299L7.22838 30.4149L12.8334 14.9999H20C20.4434 14.9999 20.8667 14.8249 21.1784 14.5116L24.1667 11.5233L28.4767 15.8333L25.4884 18.8216ZM30.8317 13.4749L26.5217 9.16493L28.3201 7.35826L32.6417 11.6599L30.8317 13.4749Z" fill="#242430"/>
</svg>
